<?xml version="1.0" encoding="UTF-8"?>
<!DOCTYPE svg PUBLIC "-//W3C//DTD SVG 1.1//EN" "http://www.w3.org/Graphics/SVG/1.1/DTD/svg11.dtd">
<svg xmlns="http://www.w3.org/2000/svg" version="1.1" width="128px" height="123px" style="shape-rendering:geometricPrecision; text-rendering:geometricPrecision; image-rendering:optimizeQuality; fill-rule:evenodd; clip-rule:evenodd" xmlns:xlink="http://www.w3.org/1999/xlink">
<g><path style="opacity:0.974" fill="#fefdfc" d="M 55.5,1.5 C 91.5347,0.0841817 114.035,16.7508 123,51.5C 124.436,87.1207 107.936,109.621 73.5,119C 37.3907,120.873 14.8907,104.373 6,69.5C 4.28474,33.4045 20.7847,10.7378 55.5,1.5 Z"/></g>
<g><path style="opacity:1" fill="#f6921d" d="M 58.5,21.5 C 69.3366,20.4998 77.1699,24.8332 82,34.5C 83.5146,50.9844 76.0146,59.151 59.5,59C 46.8564,53.7492 42.6897,44.5825 47,31.5C 49.7942,26.8659 53.6275,23.5326 58.5,21.5 Z"/></g>
<g><path style="opacity:1" fill="#fcf4ea" d="M 62.5,28.5 C 63.8589,29.0065 64.8589,30.0065 65.5,31.5C 66.1667,30.8333 66.8333,30.1667 67.5,29.5C 68.6777,32.3923 70.3444,34.8923 72.5,37C 72.0496,38.2853 71.3829,39.452 70.5,40.5C 72.5409,46.7991 70.2076,49.4658 63.5,48.5C 63.719,49.675 63.3857,50.675 62.5,51.5C 61.7189,50.2713 61.2189,48.938 61,47.5C 60.1667,48.5 59.3333,49.5 58.5,50.5C 57.4104,49.6086 57.4104,48.6086 58.5,47.5C 57.3112,46.5713 55.9778,46.238 54.5,46.5C 54.5,45.5 54.5,44.5 54.5,43.5C 55.5,43.5 56.5,43.5 57.5,43.5C 57.9272,40.6239 58.5938,37.7906 59.5,35C 59.0496,33.7147 58.3829,32.548 57.5,31.5C 58.7757,30.3554 60.109,30.3554 61.5,31.5C 62.3857,30.675 62.719,29.675 62.5,28.5 Z"/></g>
<g><path style="opacity:1" fill="#f28d23" d="M 63.5,34.5 C 66.5,34.1667 67.8333,35.5 67.5,38.5C 63.5089,39.128 62.1755,37.7947 63.5,34.5 Z"/></g>
<g><path style="opacity:1" fill="#f28f21" d="M 61.5,40.5 C 64.0606,40.4469 66.0606,41.4469 67.5,43.5C 65.9775,45.2825 63.9775,45.9492 61.5,45.5C 61.5,43.8333 61.5,42.1667 61.5,40.5 Z"/></g>
<g><path style="opacity:1" fill="#f7c985" d="M 102.5,67.5 C 102.5,66.1667 102.5,64.8333 102.5,63.5C 99.1667,63.5 95.8333,63.5 92.5,63.5C 92.5,67.8333 92.5,72.1667 92.5,76.5C 92.1667,76.5 91.8333,76.5 91.5,76.5C 91.5,71.8333 91.5,67.1667 91.5,62.5C 95.5,62.5 99.5,62.5 103.5,62.5C 103.784,64.4147 103.451,66.0813 102.5,67.5 Z"/></g>
<g><path style="opacity:1" fill="#f5921f" d="M 53.5,93.5 C 53.5,88.5 53.5,83.5 53.5,78.5C 51.712,78.2148 50.0453,78.5481 48.5,79.5C 48.6236,80.1067 48.9569,80.44 49.5,80.5C 49.5,81.5 49.5,82.5 49.5,83.5C 46.7097,83.7776 44.2097,83.1109 42,81.5C 38.9628,83.8134 38.7961,86.3134 41.5,89C 42.5,89.6667 43.5,89.6667 44.5,89C 46.3741,86.5453 48.7075,86.0453 51.5,87.5C 48.8618,93.0601 44.5285,94.8934 38.5,93C 33.2261,89.7023 32.2261,85.369 35.5,80C 32.5184,79.502 29.5184,79.3354 26.5,79.5C 26.5,74.1667 26.5,68.8333 26.5,63.5C 30.5138,63.3345 34.5138,63.5012 38.5,64C 42.4832,67.0405 43.4832,70.8738 41.5,75.5C 40.9569,75.56 40.6236,75.8933 40.5,76.5C 41.6888,77.4287 43.0222,77.762 44.5,77.5C 44.5,72.8333 44.5,68.1667 44.5,63.5C 48.1667,63.5 51.8333,63.5 55.5,63.5C 55.5,64.8333 55.5,66.1667 55.5,67.5C 53.396,67.2011 51.396,67.5344 49.5,68.5C 51.0453,69.4519 52.712,69.7852 54.5,69.5C 54.5,70.5 54.5,71.5 54.5,72.5C 52.712,72.2148 51.0453,72.5481 49.5,73.5C 51.396,74.4656 53.396,74.7989 55.5,74.5C 56.1667,78.5 56.8333,78.5 57.5,74.5C 60.5884,75.0685 63.5884,75.0685 66.5,74.5C 64.3435,73.2096 62.0101,72.3763 59.5,72C 57.8446,70.5557 57.178,68.7224 57.5,66.5C 60.6222,62.2128 64.6222,61.3794 69.5,64C 70.3567,64.6891 71.0233,65.5224 71.5,66.5C 68.443,67.1326 65.443,67.4659 62.5,67.5C 64.8822,69.0707 67.5488,69.904 70.5,70C 71,70.5 71.5,71 72,71.5C 72.0781,73.6565 72.2448,75.6565 72.5,77.5C 73.4933,72.8804 73.8266,68.2137 73.5,63.5C 77.5138,63.3345 81.5138,63.5012 85.5,64C 86.9308,64.4652 88.0975,65.2986 89,66.5C 91.6145,73.9722 89.1145,77.9722 81.5,78.5C 81.9368,81.8066 81.2702,84.8066 79.5,87.5C 80.9856,89.3016 81.9856,91.3016 82.5,93.5C 80.4727,93.6621 78.4727,93.4955 76.5,93C 74.1525,86.9801 72.8192,87.1468 72.5,93.5C 70.5,93.5 68.5,93.5 66.5,93.5C 66.8266,88.7863 66.4933,84.1196 65.5,79.5C 63.3651,80.8811 61.0318,81.8811 58.5,82.5C 60.0453,83.4519 61.712,83.7852 63.5,83.5C 63.5,84.8333 63.5,86.1667 63.5,87.5C 61.8008,87.3398 60.1341,87.5065 58.5,88C 60.4727,88.4955 62.4727,88.6621 64.5,88.5C 64.5,90.1667 64.5,91.8333 64.5,93.5C 60.8333,93.5 57.1667,93.5 53.5,93.5 Z"/></g>
<g><path style="opacity:1" fill="#fbedda" d="M 55.5,63.5 C 56.1667,64.5 56.8333,65.5 57.5,66.5C 57.178,68.7224 57.8446,70.5557 59.5,72C 62.0101,72.3763 64.3435,73.2096 66.5,74.5C 63.5884,75.0685 60.5884,75.0685 57.5,74.5C 56.8333,78.5 56.1667,78.5 55.5,74.5C 53.396,74.7989 51.396,74.4656 49.5,73.5C 51.0453,72.5481 52.712,72.2148 54.5,72.5C 54.5,71.5 54.5,70.5 54.5,69.5C 52.712,69.7852 51.0453,69.4519 49.5,68.5C 51.396,67.5344 53.396,67.2011 55.5,67.5C 55.5,66.1667 55.5,64.8333 55.5,63.5 Z"/></g>
<g><path style="opacity:1" fill="#fbf2e7" d="M 31.5,67.5 C 36.3276,67.3852 37.6609,69.5519 35.5,74C 34.2068,74.49 32.8734,74.6567 31.5,74.5C 31.5,72.1667 31.5,69.8333 31.5,67.5 Z"/></g>
<g><path style="opacity:1" fill="#fdf8ee" d="M 79.5,67.5 C 83.9764,67.8003 85.3097,69.9669 83.5,74C 82.2068,74.49 80.8734,74.6567 79.5,74.5C 79.5,72.1667 79.5,69.8333 79.5,67.5 Z"/></g>
<g><path style="opacity:1" fill="#fee2b4" d="M 44.5,63.5 C 44.5,68.1667 44.5,72.8333 44.5,77.5C 43.0222,77.762 41.6888,77.4287 40.5,76.5C 40.6236,75.8933 40.9569,75.56 41.5,75.5C 41.56,76.0431 41.8933,76.3764 42.5,76.5C 43.1669,72.0178 43.8336,67.6845 44.5,63.5 Z"/></g>
<g><path style="opacity:1" fill="#f49222" d="M 102.5,67.5 C 95.8333,68.1667 95.8333,68.8333 102.5,69.5C 102.5,70.5 102.5,71.5 102.5,72.5C 100.712,72.2148 99.0453,72.5481 97.5,73.5C 99.396,74.4656 101.396,74.7989 103.5,74.5C 103.5,76.1667 103.5,77.8333 103.5,79.5C 102.5,79.5 101.5,79.5 100.5,79.5C 98.0465,77.9402 95.3798,76.9402 92.5,76.5C 92.5,72.1667 92.5,67.8333 92.5,63.5C 95.8333,63.5 99.1667,63.5 102.5,63.5C 102.5,64.8333 102.5,66.1667 102.5,67.5 Z"/></g>
<g><path style="opacity:1" fill="#100f0e" d="M 91.5,76.5 C 91.8333,76.5 92.1667,76.5 92.5,76.5C 95.3798,76.9402 98.0465,77.9402 100.5,79.5C 104.106,90.387 100.106,94.887 88.5,93C 83.1618,89.3101 82.3285,84.8101 86,79.5C 87.8761,78.3913 89.7095,77.3913 91.5,76.5 Z"/></g>
<g><path style="opacity:1" fill="#fbd296" d="M 53.5,93.5 C 52.5139,89.03 52.1805,84.3633 52.5,79.5C 51.209,79.2627 50.209,79.596 49.5,80.5C 48.9569,80.44 48.6236,80.1067 48.5,79.5C 50.0453,78.5481 51.712,78.2148 53.5,78.5C 53.5,83.5 53.5,88.5 53.5,93.5 Z"/></g>
<g><path style="opacity:1" fill="#fdf8ed" d="M 72.5,81.5 C 73.9778,81.238 75.3112,81.5713 76.5,82.5C 75.6798,84.1112 74.3464,84.7778 72.5,84.5C 72.5,83.5 72.5,82.5 72.5,81.5 Z"/></g>
<g><path style="opacity:1" fill="#e7e7e7" d="M 91.5,81.5 C 94.3523,81.3524 96.019,82.6857 96.5,85.5C 94.1667,90.8333 91.8333,90.8333 89.5,85.5C 89.7517,83.9271 90.4183,82.5938 91.5,81.5 Z"/></g>
</svg>
