<?xml version="1.0" encoding="UTF-8"?>
<!DOCTYPE svg PUBLIC "-//W3C//DTD SVG 1.1//EN" "http://www.w3.org/Graphics/SVG/1.1/DTD/svg11.dtd">
<svg xmlns="http://www.w3.org/2000/svg" version="1.1" width="128px" height="152px" style="shape-rendering:geometricPrecision; text-rendering:geometricPrecision; image-rendering:optimizeQuality; fill-rule:evenodd; clip-rule:evenodd" xmlns:xlink="http://www.w3.org/1999/xlink">
<g><path style="opacity:1" fill="#f8f8f8" d="M -0.5,-0.5 C 42.1667,-0.5 84.8333,-0.5 127.5,-0.5C 127.5,50.1667 127.5,100.833 127.5,151.5C 84.8333,151.5 42.1667,151.5 -0.5,151.5C -0.5,100.833 -0.5,50.1667 -0.5,-0.5 Z"/></g>
<g><path style="opacity:1" fill="#515150" d="M 15.5,2.5 C 42.997,1.33635 70.6636,1.16969 98.5,2C 109.826,4.31084 117.493,10.8108 121.5,21.5C 120.075,19.9689 119.409,20.3023 119.5,22.5C 116.526,20.6733 114.359,18.0066 113,14.5C 108.831,9.8305 103.664,6.8305 97.5,5.5C 72.4255,5.17669 47.4255,5.51003 22.5,6.5C 20.6214,6.60682 20.2881,6.10682 21.5,5C 46.4878,3.92614 71.4878,3.25947 96.5,3C 69.5021,2.50003 42.5021,2.33336 15.5,2.5 Z"/></g>
<g><path style="opacity:1" fill="#242f4c" d="M 97.5,5.5 C 73.1667,6.16667 48.8333,6.83333 24.5,7.5C 24.1667,7.5 23.8333,7.5 23.5,7.5C 22.8333,7.5 22.5,7.16667 22.5,6.5C 47.4255,5.51003 72.4255,5.17669 97.5,5.5 Z"/></g>
<g><path style="opacity:1" fill="#cca630" d="M 23.5,7.5 C 23.8333,7.5 24.1667,7.5 24.5,7.5C 49.339,7.16899 74.0056,7.50232 98.5,8.5C 84.5,8.5 70.5,8.5 56.5,8.5C 47.5,8.5 38.5,8.5 29.5,8.5C 27.0971,8.44805 24.7638,8.78138 22.5,9.5C 22.8333,8.83333 23.1667,8.16667 23.5,7.5 Z"/></g>
<g><path style="opacity:1" fill="#f7d830" d="M 56.5,8.5 C 70.5,8.5 84.5,8.5 98.5,8.5C 107.769,10.7703 113.769,16.437 116.5,25.5C 116.5,33.5 116.5,41.5 116.5,49.5C 114.517,43.8325 114.184,37.9991 115.5,32C 114.803,24.2866 111.47,17.9533 105.5,13C 103.285,11.9562 100.952,11.2895 98.5,11C 84.3144,10.6617 70.3144,9.82839 56.5,8.5 Z"/></g>
<g><path style="opacity:1" fill="#f5ad17" d="M 29.5,8.5 C 35.3803,10.7758 44.7136,12.4425 57.5,13.5C 49.9809,13.175 42.6476,13.5084 35.5,14.5C 34.1147,15.6138 32.6147,16.6138 31,17.5C 30.3333,29.1667 30.3333,40.8333 31,52.5C 32.1882,53.5634 32.6882,54.8967 32.5,56.5C 31.8333,56.8333 31.1667,57.1667 30.5,57.5C 29.6773,60.977 29.1773,64.6437 29,68.5C 29.1051,55.8908 28.7718,43.2241 28,30.5C 27.964,28.0588 27.1307,26.0588 25.5,24.5C 24.0295,48.1408 23.1962,71.8074 23,95.5C 22.5,66.8353 22.3334,38.1686 22.5,9.5C 24.7638,8.78138 27.0971,8.44805 29.5,8.5 Z"/></g>
<g><path style="opacity:1" fill="#fccb2f" d="M 29.5,8.5 C 38.5,8.5 47.5,8.5 56.5,8.5C 70.3144,9.82839 84.3144,10.6617 98.5,11C 100.952,11.2895 103.285,11.9562 105.5,13C 111.47,17.9533 114.803,24.2866 115.5,32C 114.184,37.9991 114.517,43.8325 116.5,49.5C 116.666,58.5062 116.5,67.5062 116,76.5C 115.26,68.7994 114.26,61.1327 113,53.5C 112.586,53.9574 112.086,54.2907 111.5,54.5C 109.774,51.7727 107.441,49.7727 104.5,48.5C 99.6957,42.8605 94.6957,37.3605 89.5,32C 85.529,29.6619 82.029,26.8286 79,23.5C 78.7547,21.3367 77.7547,19.67 76,18.5C 75.6154,28.873 74.7821,39.2063 73.5,49.5C 72.7025,49.0431 72.3691,48.3764 72.5,47.5C 72.8281,35.9877 72.4948,24.6544 71.5,13.5C 68.1501,13.335 64.8168,13.5017 61.5,14C 60.6667,14.8333 59.8333,15.6667 59,16.5C 58.7679,15.2625 58.2679,14.2625 57.5,13.5C 44.7136,12.4425 35.3803,10.7758 29.5,8.5 Z"/></g>
<g><path style="opacity:1" fill="#9a9fac" d="M 37.5,15.5 C 43.6446,14.5098 49.9779,14.1765 56.5,14.5C 56.5,16.5 56.5,18.5 56.5,20.5C 52.7016,21.4834 48.7016,21.8168 44.5,21.5C 47.9619,20.5184 51.6286,20.185 55.5,20.5C 55.5,18.8333 55.5,17.1667 55.5,15.5C 49.5,15.5 43.5,15.5 37.5,15.5 Z"/></g>
<g><path style="opacity:1" fill="#f5f5f5" d="M 36.5,15.5 C 36.8333,15.5 37.1667,15.5 37.5,15.5C 43.5,15.5 49.5,15.5 55.5,15.5C 55.5,17.1667 55.5,18.8333 55.5,20.5C 51.6286,20.185 47.9619,20.5184 44.5,21.5C 43.5318,23.6074 43.1984,25.9407 43.5,28.5C 47.5,28.5 51.5,28.5 55.5,28.5C 55.5,30.5 55.5,32.5 55.5,34.5C 51.5,34.5 47.5,34.5 43.5,34.5C 43.1936,37.3854 43.5269,40.0521 44.5,42.5C 47.9619,43.4816 51.6286,43.815 55.5,43.5C 55.5,45.1667 55.5,46.8333 55.5,48.5C 49.5,48.5 43.5,48.5 37.5,48.5C 36.5054,37.6794 36.1721,26.6794 36.5,15.5 Z"/></g>
<g><path style="opacity:1" fill="#f6f6f7" d="M 70.5,46.5 C 68.1667,50.5 65.8333,50.5 63.5,46.5C 63.5,35.8333 63.5,25.1667 63.5,14.5C 65.8333,14.5 68.1667,14.5 70.5,14.5C 70.5,25.1667 70.5,35.8333 70.5,46.5 Z"/></g>
<g><path style="opacity:1" fill="#323234" d="M 56.5,23.5 C 55.5,23.8333 54.8333,24.5 54.5,25.5C 51.5118,27.273 48.1785,27.9396 44.5,27.5C 44.5,25.5 44.5,23.5 44.5,21.5C 48.7016,21.8168 52.7016,21.4834 56.5,20.5C 57.2679,19.7375 57.7679,18.7375 58,17.5C 58.7484,19.8401 58.2484,21.8401 56.5,23.5 Z"/></g>
<g><path style="opacity:1" fill="#272727" d="M 15.5,2.5 C 42.5021,2.33336 69.5021,2.50003 96.5,3C 71.4878,3.25947 46.4878,3.92614 21.5,5C 20.2881,6.10682 20.6214,6.60682 22.5,6.5C 22.5,7.16667 22.8333,7.5 23.5,7.5C 23.1667,8.16667 22.8333,8.83333 22.5,9.5C 22.1667,9.5 21.8333,9.5 21.5,9.5C 21.19,8.26166 20.69,8.26166 20,9.5C 19.6667,20.8333 19.3333,32.1667 19,43.5C 18.8142,45.9005 18.3142,48.2338 17.5,50.5C 14.7907,47.4545 11.7907,44.7879 8.5,42.5C 7.48052,40.396 6.48052,38.396 5.5,36.5C 5.10389,28.747 5.60389,21.0804 7,13.5C 9.83333,10.6667 12.6667,7.83333 15.5,5C 14.9056,4.53566 14.2389,4.36899 13.5,4.5C 13.8333,3.5 14.5,2.83333 15.5,2.5 Z"/></g>
<g><path style="opacity:1" fill="#4e4e51" d="M 35.5,14.5 C 42.6476,13.5084 49.9809,13.175 57.5,13.5C 58.2679,14.2625 58.7679,15.2625 59,16.5C 59.8333,15.6667 60.6667,14.8333 61.5,14C 64.8168,13.5017 68.1501,13.335 71.5,13.5C 71.8279,24.6794 71.4946,35.6794 70.5,46.5C 70.5,35.8333 70.5,25.1667 70.5,14.5C 68.1667,14.5 65.8333,14.5 63.5,14.5C 63.5,25.1667 63.5,35.8333 63.5,46.5C 62.6698,36.6751 62.1698,26.6751 62,16.5C 61.6667,21.1667 61.3333,25.8333 61,30.5C 60.0853,31.3279 59.4186,32.3279 59,33.5C 58.1667,31.5 57.3333,29.5 56.5,27.5C 55.8933,27.6236 55.56,27.9569 55.5,28.5C 51.5,28.5 47.5,28.5 43.5,28.5C 43.1984,25.9407 43.5318,23.6074 44.5,21.5C 44.5,23.5 44.5,25.5 44.5,27.5C 48.1785,27.9396 51.5118,27.273 54.5,25.5C 55.209,26.404 56.209,26.7373 57.5,26.5C 57.7373,25.209 57.404,24.209 56.5,23.5C 58.2484,21.8401 58.7484,19.8401 58,17.5C 57.7679,18.7375 57.2679,19.7375 56.5,20.5C 56.5,18.5 56.5,16.5 56.5,14.5C 49.9779,14.1765 43.6446,14.5098 37.5,15.5C 37.1667,15.5 36.8333,15.5 36.5,15.5C 36.5,14.8333 36.1667,14.5 35.5,14.5 Z"/></g>
<g><path style="opacity:1" fill="#d4b824" d="M 56.5,23.5 C 57.404,24.209 57.7373,25.209 57.5,26.5C 56.209,26.7373 55.209,26.404 54.5,25.5C 54.8333,24.5 55.5,23.8333 56.5,23.5 Z"/></g>
<g><path style="opacity:1" fill="#3f404b" d="M 97.5,5.5 C 103.664,6.8305 108.831,9.8305 113,14.5C 114.359,18.0066 116.526,20.6733 119.5,22.5C 120.482,48.4555 120.815,74.4555 120.5,100.5C 119.209,100.737 118.209,100.404 117.5,99.5C 117.831,74.661 117.498,49.9944 116.5,25.5C 113.769,16.437 107.769,10.7703 98.5,8.5C 74.0056,7.50232 49.339,7.16899 24.5,7.5C 48.8333,6.83333 73.1667,6.16667 97.5,5.5 Z"/></g>
<g><path style="opacity:1" fill="#333132" d="M 71.5,13.5 C 72.4948,24.6544 72.8281,35.9877 72.5,47.5C 71.596,48.209 71.2627,49.209 71.5,50.5C 77.2964,51.615 78.9631,54.9483 76.5,60.5C 80.1591,58.5127 83.8258,56.5127 87.5,54.5C 88.7716,54.5698 89.9383,54.9032 91,55.5C 91.4935,57.1341 91.6602,58.8008 91.5,60.5C 98.6729,58.8389 101.173,61.5055 99,68.5C 97.1136,71.242 94.6136,72.9087 91.5,73.5C 91.1984,76.0593 91.5318,78.3926 92.5,80.5C 94.5664,80.8054 96.7331,81.1387 99,81.5C 99.7958,84.0385 99.6291,86.3718 98.5,88.5C 98.5,87.8333 98.1667,87.5 97.5,87.5C 97.7852,85.712 97.4519,84.0453 96.5,82.5C 94.6293,83.767 92.7959,83.767 91,82.5C 90.5008,77.8452 90.3342,73.1785 90.5,68.5C 95.9313,69.9064 98.2647,67.9064 97.5,62.5C 94.8333,62.5 92.1667,62.5 89.5,62.5C 89.5,60.5 89.5,58.5 89.5,56.5C 85.3029,56.1937 83.3029,58.1937 83.5,62.5C 78.5,62.5 73.5,62.5 68.5,62.5C 68.5,70.5 68.5,78.5 68.5,86.5C 67.8334,78.6567 67.1667,70.6567 66.5,62.5C 65.1552,61.6533 64.1552,60.4866 63.5,59C 62.5632,58.3083 61.8966,58.475 61.5,59.5C 60.0384,58.5423 58.7051,57.3756 57.5,56C 56.2068,55.51 54.8734,55.3433 53.5,55.5C 53.5,55.1667 53.5,54.8333 53.5,54.5C 54.8734,54.6567 56.2068,54.49 57.5,54C 55.7148,52.8372 53.7148,52.1705 51.5,52C 57.7056,51.8291 59.8722,48.6625 58,42.5C 57.8091,44.7078 57.3091,46.7078 56.5,48.5C 56.5,46.5 56.5,44.5 56.5,42.5C 52.5,42.5 48.5,42.5 44.5,42.5C 43.5269,40.0521 43.1936,37.3854 43.5,34.5C 47.5,34.5 51.5,34.5 55.5,34.5C 55.5,32.5 55.5,30.5 55.5,28.5C 55.56,27.9569 55.8933,27.6236 56.5,27.5C 57.3333,29.5 58.1667,31.5 59,33.5C 59.4186,32.3279 60.0853,31.3279 61,30.5C 61.3333,25.8333 61.6667,21.1667 62,16.5C 62.1698,26.6751 62.6698,36.6751 63.5,46.5C 65.8333,50.5 68.1667,50.5 70.5,46.5C 71.4946,35.6794 71.8279,24.6794 71.5,13.5 Z"/></g>
<g><path style="opacity:1" fill="#d1a41b" d="M 55.5,37.5 C 57.1765,38.1834 57.8432,39.5168 57.5,41.5C 53.1547,41.7019 52.488,40.3686 55.5,37.5 Z"/></g>
<g><path style="opacity:1" fill="#201f1e" d="M 35.5,14.5 C 36.1667,14.5 36.5,14.8333 36.5,15.5C 36.1721,26.6794 36.5054,37.6794 37.5,48.5C 43.8333,49.8333 50.1667,49.8333 56.5,48.5C 57.3091,46.7078 57.8091,44.7078 58,42.5C 59.8722,48.6625 57.7056,51.8291 51.5,52C 53.7148,52.1705 55.7148,52.8372 57.5,54C 56.2068,54.49 54.8734,54.6567 53.5,54.5C 47.8333,54.5 42.1667,54.5 36.5,54.5C 36.5,65.5 36.5,76.5 36.5,87.5C 35.6695,76.6743 35.1695,65.6743 35,54.5C 34.6667,54.1667 34.3333,53.8333 34,53.5C 33.7679,54.7375 33.2679,55.7375 32.5,56.5C 32.6882,54.8967 32.1882,53.5634 31,52.5C 30.3333,40.8333 30.3333,29.1667 31,17.5C 32.6147,16.6138 34.1147,15.6138 35.5,14.5 Z"/></g>
<g><path style="opacity:1" fill="#9d9e9f" d="M 44.5,42.5 C 48.5,42.5 52.5,42.5 56.5,42.5C 56.5,44.5 56.5,46.5 56.5,48.5C 50.1667,49.8333 43.8333,49.8333 37.5,48.5C 43.5,48.5 49.5,48.5 55.5,48.5C 55.5,46.8333 55.5,45.1667 55.5,43.5C 51.6286,43.815 47.9619,43.4816 44.5,42.5 Z"/></g>
<g><path style="opacity:1" fill="#f6bc2a" d="M 116.5,49.5 C 116.5,41.5 116.5,33.5 116.5,25.5C 117.498,49.9944 117.831,74.661 117.5,99.5C 116.833,99.8333 116.167,100.167 115.5,100.5C 114.624,100.631 113.957,100.298 113.5,99.5C 114.439,90.8741 114.439,82.3741 113.5,74C 112.551,73.3828 111.718,73.5494 111,74.5C 108.88,72.3478 106.38,70.8478 103.5,70C 104.167,69.6667 104.833,69.3333 105.5,69C 104.167,68.3333 102.833,68.3333 101.5,69C 99.1937,71.0613 97.027,73.2279 95,75.5C 94.586,75.0426 94.086,74.7093 93.5,74.5C 92.5344,76.396 92.2011,78.396 92.5,80.5C 91.5318,78.3926 91.1984,76.0593 91.5,73.5C 94.6136,72.9087 97.1136,71.242 99,68.5C 101.173,61.5055 98.6729,58.8389 91.5,60.5C 91.6602,58.8008 91.4935,57.1341 91,55.5C 89.9383,54.9032 88.7716,54.5698 87.5,54.5C 83.8258,56.5127 80.1591,58.5127 76.5,60.5C 78.9631,54.9483 77.2964,51.615 71.5,50.5C 71.2627,49.209 71.596,48.209 72.5,47.5C 72.3691,48.3764 72.7025,49.0431 73.5,49.5C 74.7821,39.2063 75.6154,28.873 76,18.5C 77.7547,19.67 78.7547,21.3367 79,23.5C 82.029,26.8286 85.529,29.6619 89.5,32C 94.6957,37.3605 99.6957,42.8605 104.5,48.5C 107.441,49.7727 109.774,51.7727 111.5,54.5C 112.086,54.2907 112.586,53.9574 113,53.5C 114.26,61.1327 115.26,68.7994 116,76.5C 116.5,67.5062 116.666,58.5062 116.5,49.5 Z"/></g>
<g><path style="opacity:1" fill="#e0e0e3" d="M 69.5,51.5 C 75.4877,51.664 76.821,54.164 73.5,59C 67.4034,59.1475 66.0701,56.6475 69.5,51.5 Z"/></g>
<g><path style="opacity:1" fill="#0d0d0d" d="M 13.5,4.5 C 14.2389,4.36899 14.9056,4.53566 15.5,5C 12.6667,7.83333 9.83333,10.6667 7,13.5C 5.60389,21.0804 5.10389,28.747 5.5,36.5C 5.33351,46.8387 5.50017,57.172 6,67.5C 6.40174,68.8721 6.90174,70.2054 7.5,71.5C 11.4192,73.9977 14.9192,76.9977 18,80.5C 18.3333,78.1667 18.6667,75.8333 19,73.5C 19.1682,83.5425 19.8349,93.5425 21,103.5C 21.7172,102.956 22.2172,102.289 22.5,101.5C 27.2088,117.39 37.2088,128.89 52.5,136C 56.4096,137.041 59.4096,135.875 61.5,132.5C 64.7632,130.578 67.7632,128.245 70.5,125.5C 68.8099,122.976 66.6432,120.976 64,119.5C 61.9243,116.107 60.7576,112.44 60.5,108.5C 61.1174,108.389 61.6174,108.056 62,107.5C 62.9734,109.392 63.6401,111.392 64,113.5C 65.6667,115.269 67.3333,116.935 69,118.5C 77.1238,117.545 85.2904,117.212 93.5,117.5C 100.082,117.392 106.415,117.392 112.5,117.5C 111.486,118.674 110.153,119.34 108.5,119.5C 95.8158,119.168 83.1492,119.501 70.5,120.5C 70.6236,121.107 70.9569,121.44 71.5,121.5C 73.7029,122.052 74.5362,123.385 74,125.5C 67.8333,133 61.6667,140.5 55.5,148C 25.5484,144.383 8.38174,127.55 4,97.5C 3.33333,69.5 3.33333,41.5 4,13.5C 7.03594,10.2956 10.2026,7.29564 13.5,4.5 Z"/></g>
<g><path style="opacity:1" fill="#171718" d="M 21.5,9.5 C 21.1973,40.1915 21.5306,70.8582 22.5,101.5C 22.2172,102.289 21.7172,102.956 21,103.5C 19.8349,93.5425 19.1682,83.5425 19,73.5C 18.6667,75.8333 18.3333,78.1667 18,80.5C 14.9192,76.9977 11.4192,73.9977 7.5,71.5C 6.90174,70.2054 6.40174,68.8721 6,67.5C 5.50017,57.172 5.33351,46.8387 5.5,36.5C 6.48052,38.396 7.48052,40.396 8.5,42.5C 11.7907,44.7879 14.7907,47.4545 17.5,50.5C 18.3142,48.2338 18.8142,45.9005 19,43.5C 19.3333,32.1667 19.6667,20.8333 20,9.5C 20.69,8.26166 21.19,8.26166 21.5,9.5 Z"/></g>
<g><path style="opacity:1" fill="#140f0d" d="M 36.5,87.5 C 36.8333,87.5 37.1667,87.5 37.5,87.5C 43.3188,88.6525 49.3188,88.8192 55.5,88C 63.8381,82.828 64.5048,76.9947 57.5,70.5C 60.7971,67.5682 62.1304,63.9015 61.5,59.5C 61.8966,58.475 62.5632,58.3083 63.5,59C 64.1552,60.4866 65.1552,61.6533 66.5,62.5C 67.1667,70.6567 67.8334,78.6567 68.5,86.5C 68.8333,87.5 69.5,88.1667 70.5,88.5C 72.0764,89.1429 73.4097,90.1429 74.5,91.5C 73.6935,92.7281 72.6935,93.7281 71.5,94.5C 65.0567,95.0602 61.7233,92.0602 61.5,85.5C 59.4789,88.1878 57.1456,90.5211 54.5,92.5C 47.3348,94.51 40.0014,95.01 32.5,94C 32,93.5 31.5,93 31,92.5C 30.5001,80.8381 30.3335,69.1714 30.5,57.5C 31.1667,57.1667 31.8333,56.8333 32.5,56.5C 33.2679,55.7375 33.7679,54.7375 34,53.5C 34.3333,53.8333 34.6667,54.1667 35,54.5C 35.1695,65.6743 35.6695,76.6743 36.5,87.5 Z"/></g>
<g><path style="opacity:1" fill="#f1f1f1" d="M 53.5,55.5 C 54.8734,55.3433 56.2068,55.51 57.5,56C 58.7051,57.3756 60.0384,58.5423 61.5,59.5C 62.1304,63.9015 60.7971,67.5682 57.5,70.5C 64.5048,76.9947 63.8381,82.828 55.5,88C 49.3188,88.8192 43.3188,88.6525 37.5,87.5C 37.5,76.8333 37.5,66.1667 37.5,55.5C 42.8333,55.5 48.1667,55.5 53.5,55.5 Z"/></g>
<g><path style="opacity:1" fill="#c3a31a" d="M 60.5,54.5 C 61.5,54.5 62.5,54.5 63.5,54.5C 63.5,55.5 63.5,56.5 63.5,57.5C 62.5,57.5 61.5,57.5 60.5,57.5C 60.5,56.5 60.5,55.5 60.5,54.5 Z"/></g>
<g><path style="opacity:1" fill="#eeefef" d="M 97.5,87.5 C 95.866,88.1611 94.0326,88.4944 92,88.5C 88.0185,89.2157 85.0185,87.8823 83,84.5C 82.5006,78.8431 82.3339,73.1764 82.5,67.5C 80.1667,67.5 77.8333,67.5 75.5,67.5C 75.6662,73.8421 75.4995,80.1754 75,86.5C 73.8904,88.0368 72.3904,88.7035 70.5,88.5C 69.5,88.1667 68.8333,87.5 68.5,86.5C 68.5,78.5 68.5,70.5 68.5,62.5C 73.5,62.5 78.5,62.5 83.5,62.5C 83.3029,58.1937 85.3029,56.1937 89.5,56.5C 89.5,58.5 89.5,60.5 89.5,62.5C 92.1667,62.5 94.8333,62.5 97.5,62.5C 98.2647,67.9064 95.9313,69.9064 90.5,68.5C 90.3342,73.1785 90.5008,77.8452 91,82.5C 92.7959,83.767 94.6293,83.767 96.5,82.5C 97.4519,84.0453 97.7852,85.712 97.5,87.5 Z"/></g>
<g><path style="opacity:1" fill="#1d1d1d" d="M 43.5,60.5 C 46.1873,60.3359 48.854,60.5026 51.5,61C 54.033,63.084 54.033,65.084 51.5,67C 48.854,67.4974 46.1873,67.6641 43.5,67.5C 43.5,65.1667 43.5,62.8333 43.5,60.5 Z"/></g>
<g><path style="opacity:1" fill="#fe8c00" d="M 54.5,92.5 C 56.258,92.1231 57.9246,91.4565 59.5,90.5C 62.1239,93.1581 64.7906,95.8248 67.5,98.5C 63.9058,100.001 60.2391,101.001 56.5,101.5C 55.0069,102.312 54.3402,103.645 54.5,105.5C 55.1742,113.515 58.5075,120.182 64.5,125.5C 62.476,127.69 60.6427,130.023 59,132.5C 58.196,133.804 57.0293,134.471 55.5,134.5C 40.461,129.628 30.6276,119.628 26,104.5C 24.0391,90.8118 24.0391,77.1452 26,63.5C 27.9206,73.0641 28.9206,82.7308 29,92.5C 32.4985,96.0329 36.8319,97.3662 42,96.5C 46.7666,96.8515 51.2666,96.0182 55.5,94C 54.944,93.6174 54.6107,93.1174 54.5,92.5 Z"/></g>
<g><path style="opacity:1" fill="#bfbfc0" d="M 53.5,54.5 C 53.5,54.8333 53.5,55.1667 53.5,55.5C 48.1667,55.5 42.8333,55.5 37.5,55.5C 37.5,66.1667 37.5,76.8333 37.5,87.5C 37.1667,87.5 36.8333,87.5 36.5,87.5C 36.5,76.5 36.5,65.5 36.5,54.5C 42.1667,54.5 47.8333,54.5 53.5,54.5 Z"/></g>
<g><path style="opacity:1" fill="#b07e17" d="M 60.5,68.5 C 62.4646,68.9483 62.7979,69.9483 61.5,71.5C 60.6143,70.675 60.281,69.675 60.5,68.5 Z"/></g>
<g><path style="opacity:1" fill="#eb9007" d="M 21.5,9.5 C 21.8333,9.5 22.1667,9.5 22.5,9.5C 22.3334,38.1686 22.5,66.8353 23,95.5C 23.1962,71.8074 24.0295,48.1408 25.5,24.5C 27.1307,26.0588 27.964,28.0588 28,30.5C 28.7718,43.2241 29.1051,55.8908 29,68.5C 29.1773,64.6437 29.6773,60.977 30.5,57.5C 30.3335,69.1714 30.5001,80.8381 31,92.5C 31.5,93 32,93.5 32.5,94C 40.0014,95.01 47.3348,94.51 54.5,92.5C 54.6107,93.1174 54.944,93.6174 55.5,94C 51.2666,96.0182 46.7666,96.8515 42,96.5C 36.8319,97.3662 32.4985,96.0329 29,92.5C 28.9206,82.7308 27.9206,73.0641 26,63.5C 24.0391,77.1452 24.0391,90.8118 26,104.5C 30.6276,119.628 40.461,129.628 55.5,134.5C 57.0293,134.471 58.196,133.804 59,132.5C 60.6427,130.023 62.476,127.69 64.5,125.5C 58.5075,120.182 55.1742,113.515 54.5,105.5C 54.3402,103.645 55.0069,102.312 56.5,101.5C 56.1936,104.385 56.5269,107.052 57.5,109.5C 59.0772,115.65 62.4105,120.65 67.5,124.5C 65.0908,126.902 63.0908,129.569 61.5,132.5C 59.4096,135.875 56.4096,137.041 52.5,136C 37.2088,128.89 27.2088,117.39 22.5,101.5C 21.5306,70.8582 21.1973,40.1915 21.5,9.5 Z"/></g>
<g><path style="opacity:1" fill="#1f1f1f" d="M 43.5,73.5 C 46.5184,73.3354 49.5184,73.502 52.5,74C 55.1667,76.6667 55.1667,79.3333 52.5,82C 49.5184,82.498 46.5184,82.6646 43.5,82.5C 43.5,79.5 43.5,76.5 43.5,73.5 Z"/></g>
<g><path style="opacity:1" fill="#fab21d" d="M 115.5,100.5 C 115.5,100.833 115.5,101.167 115.5,101.5C 115.167,101.5 114.833,101.5 114.5,101.5C 102.167,101.5 89.8333,101.5 77.5,101.5C 87.7716,100.962 98.1049,99.7949 108.5,98C 108.833,97.6667 109.167,97.3333 109.5,97C 104.932,95.8213 102.932,93.1546 103.5,89C 102.833,88.3333 102.167,88.3333 101.5,89C 96.6065,95.87 89.9398,98.2034 81.5,96C 79.714,95.2155 78.214,94.0488 77,92.5C 75.5557,94.1554 73.7224,94.822 71.5,94.5C 72.6935,93.7281 73.6935,92.7281 74.5,91.5C 75.4822,90.8592 76.4822,90.1925 77.5,89.5C 80.9321,94.3046 85.5988,95.8046 91.5,94C 94.5721,93.0932 96.9055,91.2599 98.5,88.5C 99.6291,86.3718 99.7958,84.0385 99,81.5C 96.7331,81.1387 94.5664,80.8054 92.5,80.5C 92.2011,78.396 92.5344,76.396 93.5,74.5C 94.086,74.7093 94.586,75.0426 95,75.5C 97.027,73.2279 99.1937,71.0613 101.5,69C 102.833,68.3333 104.167,68.3333 105.5,69C 104.833,69.3333 104.167,69.6667 103.5,70C 106.38,70.8478 108.88,72.3478 111,74.5C 111.718,73.5494 112.551,73.3828 113.5,74C 114.439,82.3741 114.439,90.8741 113.5,99.5C 113.957,100.298 114.624,100.631 115.5,100.5 Z"/></g>
<g><path style="opacity:1" fill="#1f1e21" d="M 97.5,87.5 C 98.1667,87.5 98.5,87.8333 98.5,88.5C 96.9055,91.2599 94.5721,93.0932 91.5,94C 85.5988,95.8046 80.9321,94.3046 77.5,89.5C 76.4822,90.1925 75.4822,90.8592 74.5,91.5C 73.4097,90.1429 72.0764,89.1429 70.5,88.5C 72.3904,88.7035 73.8904,88.0368 75,86.5C 75.4995,80.1754 75.6662,73.8421 75.5,67.5C 77.8333,67.5 80.1667,67.5 82.5,67.5C 82.3339,73.1764 82.5006,78.8431 83,84.5C 85.0185,87.8823 88.0185,89.2157 92,88.5C 94.0326,88.4944 95.866,88.1611 97.5,87.5 Z"/></g>
<g><path style="opacity:1" fill="#f9a20e" d="M 71.5,94.5 C 73.7224,94.822 75.5557,94.1554 77,92.5C 78.214,94.0488 79.714,95.2155 81.5,96C 89.9398,98.2034 96.6065,95.87 101.5,89C 102.167,88.3333 102.833,88.3333 103.5,89C 102.932,93.1546 104.932,95.8213 109.5,97C 109.167,97.3333 108.833,97.6667 108.5,98C 98.1049,99.7949 87.7716,100.962 77.5,101.5C 70.5,101.5 63.5,101.5 56.5,101.5C 60.2391,101.001 63.9058,100.001 67.5,98.5C 64.7906,95.8248 62.1239,93.1581 59.5,90.5C 57.9246,91.4565 56.258,92.1231 54.5,92.5C 57.1456,90.5211 59.4789,88.1878 61.5,85.5C 61.7233,92.0602 65.0567,95.0602 71.5,94.5 Z"/></g>
<g><path style="opacity:1" fill="#80581b" d="M 56.5,101.5 C 63.5,101.5 70.5,101.5 77.5,101.5C 89.8333,101.5 102.167,101.5 114.5,101.5C 95.674,102.497 76.674,102.83 57.5,102.5C 57.5,104.833 57.5,107.167 57.5,109.5C 56.5269,107.052 56.1936,104.385 56.5,101.5 Z"/></g>
<g><path style="opacity:1" fill="#202020" d="M 87.5,104.5 C 86.3915,105.29 85.0581,105.79 83.5,106C 87.6857,106.347 90.519,108.513 92,112.5C 96.5277,114.054 97.0277,115.721 93.5,117.5C 85.2904,117.212 77.1238,117.545 69,118.5C 67.3333,116.935 65.6667,115.269 64,113.5C 63.6401,111.392 62.9734,109.392 62,107.5C 61.6174,108.056 61.1174,108.389 60.5,108.5C 59.5655,107.432 59.2322,106.099 59.5,104.5C 68.8333,104.5 78.1667,104.5 87.5,104.5 Z"/></g>
<g><path style="opacity:1" fill="#2b2b2b" d="M 121.5,21.5 C 122.658,50.4281 122.824,79.4281 122,108.5C 118.964,111.704 115.797,114.704 112.5,117.5C 106.415,117.392 100.082,117.392 93.5,117.5C 97.0277,115.721 96.5277,114.054 92,112.5C 90.519,108.513 87.6857,106.347 83.5,106C 85.0581,105.79 86.3915,105.29 87.5,104.5C 96.5062,104.666 105.506,104.5 114.5,104C 116.359,103.399 116.692,102.566 115.5,101.5C 115.5,101.167 115.5,100.833 115.5,100.5C 116.167,100.167 116.833,99.8333 117.5,99.5C 118.209,100.404 119.209,100.737 120.5,100.5C 120.815,74.4555 120.482,48.4555 119.5,22.5C 119.409,20.3023 120.075,19.9689 121.5,21.5 Z"/></g>
<g><path style="opacity:1" fill="#494949" d="M 108.5,119.5 C 96.1667,120.167 83.8333,120.833 71.5,121.5C 70.9569,121.44 70.6236,121.107 70.5,120.5C 83.1492,119.501 95.8158,119.168 108.5,119.5 Z"/></g>
<g><path style="opacity:1" fill="#14151f" d="M 114.5,101.5 C 114.833,101.5 115.167,101.5 115.5,101.5C 116.692,102.566 116.359,103.399 114.5,104C 105.506,104.5 96.5062,104.666 87.5,104.5C 78.1667,104.5 68.8333,104.5 59.5,104.5C 59.2322,106.099 59.5655,107.432 60.5,108.5C 60.7576,112.44 61.9243,116.107 64,119.5C 66.6432,120.976 68.8099,122.976 70.5,125.5C 67.7632,128.245 64.7632,130.578 61.5,132.5C 63.0908,129.569 65.0908,126.902 67.5,124.5C 62.4105,120.65 59.0772,115.65 57.5,109.5C 57.5,107.167 57.5,104.833 57.5,102.5C 76.674,102.83 95.674,102.497 114.5,101.5 Z"/></g>
</svg>
