<?xml version="1.0" standalone="no"?>
<!DOCTYPE svg PUBLIC "-//W3C//DTD SVG 20010904//EN"
 "http://www.w3.org/TR/2001/REC-SVG-20010904/DTD/svg10.dtd">
<svg version="1.0" xmlns="http://www.w3.org/2000/svg"
 width="2143.000000pt" height="2560.000000pt" viewBox="0 0 2143.000000 2560.000000"
 preserveAspectRatio="xMidYMid meet">

<g transform="translate(0.000000,2560.000000) scale(0.100000,-0.100000)"
fill="#000000" stroke="none">
<path d="M3075 25223 c-197 -26 -372 -91 -540 -201 -51 -34 -262 -237 -788
-761 -395 -394 -745 -747 -776 -786 -192 -234 -311 -494 -369 -805 -14 -77
-16 -636 -19 -5600 -4 -5386 -1 -6132 27 -6640 83 -1505 343 -2848 773 -4001
373 -998 905 -1916 1532 -2644 520 -604 1086 -1104 1756 -1553 545 -364 1253
-735 1899 -992 541 -217 957 -356 1593 -535 166 -46 585 -151 661 -164 255
-46 569 47 765 226 79 72 120 122 422 513 296 383 820 1059 911 1175 43 55
216 278 384 495 168 217 327 422 353 455 26 33 70 89 97 125 28 36 138 178
244 315 556 716 671 867 668 869 -1 2 -173 117 -382 257 l-379 254 3054 6
c2783 5 3062 7 3146 22 316 56 589 182 818 378 44 37 395 384 781 771 581 583
710 718 757 789 88 133 138 253 184 434 16 66 17 409 19 6505 1 3665 -2 6485
-7 6550 -51 658 -204 1238 -473 1795 -148 307 -342 618 -544 877 -322 413
-713 775 -1147 1065 -554 369 -1173 617 -1840 737 -432 77 249 70 -7035 72
-3583 0 -6528 -1 -6545 -3z m12975 -1001 c797 -92 1503 -380 2100 -857 762
-608 1270 -1450 1454 -2410 14 -71 33 -195 43 -275 17 -138 18 -411 18 -5940
0 -5492 -1 -5798 -18 -5860 -36 -137 -115 -258 -229 -356 -70 -59 -135 -96
-233 -131 l-80 -28 -4799 -3 -4799 -2 6 -198 c27 -801 205 -1528 525 -2142 35
-69 68 -129 72 -135 4 -5 20 -32 35 -60 46 -84 209 -325 280 -415 219 -276
447 -504 685 -681 99 -74 188 -134 223 -150 15 -7 27 -17 27 -23 0 -6 -23 -38
-52 -71 -28 -33 -106 -127 -172 -209 -158 -195 -235 -290 -383 -472 -67 -82
-179 -219 -248 -304 -70 -85 -231 -283 -358 -439 -304 -373 -383 -437 -618
-497 -90 -23 -115 -26 -223 -21 -183 7 -244 29 -691 254 -115 58 -238 121
-272 139 -35 19 -93 50 -130 70 -647 349 -1242 760 -1812 1252 -291 252 -774
757 -976 1022 -22 29 -58 76 -81 104 -22 28 -83 109 -134 180 -530 737 -918
1566 -1161 2486 -51 193 -106 430 -124 535 -7 44 -23 130 -35 190 -40 206 -99
689 -120 980 -31 429 -36 644 -38 1585 -1 470 -4 1314 -7 1875 -10 2067 -7
10418 4 10467 67 289 302 511 579 547 104 13 11625 7 11742 -7z"/>
<path d="M6275 23314 c-11 -2 -44 -9 -74 -15 -69 -14 -165 -58 -238 -108 -70
-48 -597 -576 -642 -644 -45 -67 -85 -158 -107 -247 -18 -73 -19 -161 -19
-2770 0 -2539 1 -2699 18 -2763 51 -201 205 -384 387 -464 l61 -26 -149 -151
c-197 -199 -258 -290 -300 -455 -16 -61 -17 -253 -17 -2746 0 -3010 -7 -2733
75 -2897 80 -161 187 -267 343 -342 177 -86 98 -80 1122 -83 920 -3 1229 4
1434 32 374 53 657 138 930 282 239 125 308 179 628 497 259 256 263 259 283
241 18 -16 20 -16 20 -2 0 10 -4 17 -10 17 -27 0 4 38 168 204 98 100 206 218
239 263 l61 82 5 -357 c5 -387 7 -406 71 -576 71 -187 224 -379 396 -496 83
-56 207 -114 315 -146 83 -25 108 -28 305 -32 140 -3 240 0 289 8 161 26 342
103 473 201 36 26 193 175 351 329 237 233 291 291 313 337 l26 56 37 -95 c96
-243 255 -456 450 -604 213 -161 545 -274 897 -305 156 -14 488 -6 664 15 293
35 632 126 813 217 62 32 790 766 825 833 l27 51 0 535 0 535 -28 57 c-35 72
-111 141 -180 164 -81 28 -163 23 -302 -18 -217 -65 -363 -91 -520 -92 -124
-1 -144 1 -175 20 -19 11 -41 31 -47 45 -10 18 -13 163 -13 605 l0 582 138 5
c218 7 174 -23 629 430 271 270 400 405 420 441 l28 51 0 545 0 545 -23 43
c-36 67 -98 129 -161 159 l-56 28 -487 3 -487 3 -3 337 -3 337 -33 67 c-36 73
-87 124 -161 160 -46 23 -48 23 -516 23 l-470 0 -50 -24 c-38 -19 -141 -114
-433 -405 -327 -325 -387 -389 -410 -438 l-27 -58 -344 0 -343 0 88 93 c99
103 150 175 206 288 124 253 123 576 -1 829 -104 209 -242 350 -443 451 -201
101 -452 127 -623 63 -11 -4 0 9 25 29 112 91 214 259 256 424 l24 96 0 2681
c0 1824 -4 2702 -11 2746 -14 87 -52 154 -118 206 -97 76 -86 75 -826 72
l-650 -3 -60 -28 c-52 -24 -106 -74 -387 -354 l-326 -326 -4 234 c-3 215 -5
238 -25 281 -30 66 -96 133 -162 165 l-56 28 -1650 1 c-907 1 -1659 0 -1670
-2z m3240 -819 l0 -500 -1042 -3 -1043 -2 0 -625 0 -625 970 0 970 0 0 -500 0
-500 -970 0 -970 0 0 -735 0 -735 1045 0 1045 0 0 -505 0 -505 -1513 0 c-1385
0 -1518 1 -1563 17 -100 33 -157 85 -203 183 l-26 55 0 2615 0 2615 33 67 c32
65 81 116 142 149 71 37 83 37 1625 36 l1500 -2 0 -500z m2375 -2107 l0 -2612
-21 -78 c-51 -190 -199 -345 -387 -405 -158 -51 -317 -39 -465 34 -137 68
-265 226 -309 383 -10 36 -13 587 -15 2655 -2 1435 -1 2615 2 2622 3 10 130
13 600 13 l595 0 0 -2612z m-2211 885 c-3 -372 -4 -404 -18 -382 -28 42 -92
108 -127 130 -58 35 -94 41 -286 48 l-188 6 302 303 c166 166 306 302 311 302
4 0 7 -183 6 -407z m-12 -2710 c-3 -2 -17 2 -33 8 -30 12 -93 14 -504 17
l-235 2 383 383 c210 210 383 389 384 397 2 8 4 -169 5 -394 2 -225 2 -411 0
-413z m2613 -1808 c271 -72 470 -333 470 -615 -1 -361 -279 -639 -640 -640
-167 -1 -310 54 -428 165 -134 124 -197 258 -208 435 -20 328 211 617 536 670
70 11 199 4 270 -15z m-3680 -418 c480 -50 813 -135 1092 -279 345 -177 552
-474 608 -874 58 -422 -22 -832 -218 -1110 -135 -191 -315 -317 -544 -381 -75
-20 -98 -31 -98 -44 0 -11 11 -19 34 -23 74 -14 256 -79 351 -125 241 -118
399 -278 511 -515 82 -175 112 -328 121 -611 11 -369 -45 -629 -188 -880 -285
-499 -841 -793 -1617 -856 -80 -6 -512 -9 -1167 -7 l-1040 3 -51 27 c-64 33
-136 113 -161 176 -17 45 -18 148 -21 2631 -2 2856 -7 2655 61 2749 43 61 95
101 159 123 51 18 97 19 1033 16 814 -3 1006 -7 1135 -20z m2154 -189 c-129
-133 -201 -245 -249 -388 l-22 -65 -32 64 c-77 152 -213 313 -364 434 l-59 47
408 0 407 0 -89 -92z m4396 -668 l0 -470 615 0 615 0 0 -450 0 -450 -615 0
-615 0 0 -1087 c0 -1180 0 -1163 55 -1274 54 -109 167 -194 299 -224 87 -20
274 -20 426 0 94 12 409 86 473 111 16 6 17 -26 17 -443 l0 -449 -97 -36
c-130 -48 -356 -103 -528 -128 -179 -27 -545 -38 -695 -21 -206 24 -405 78
-552 152 -263 132 -461 398 -537 726 -56 239 -54 204 -58 1486 l-4 1187 -620
0 -619 0 0 -1472 c0 -1598 1 -1543 -55 -1662 -66 -140 -183 -249 -330 -308
-75 -30 -88 -32 -205 -33 -106 0 -136 4 -198 24 -147 48 -274 158 -343 296
-73 148 -69 15 -69 2045 0 1154 4 1838 10 1860 13 49 66 109 114 131 39 18 95
19 1219 19 l1177 0 15 33 c12 27 149 393 301 805 l38 102 383 0 383 0 0 -470z
m-4660 -1722 l0 -363 -32 65 c-39 79 -133 175 -206 210 -28 14 -52 28 -52 31
0 3 12 16 26 30 50 45 170 215 215 302 24 48 45 87 47 87 1 0 2 -163 2 -362z"/>
<path d="M7430 14725 l0 -637 483 5 c431 4 494 7 592 25 171 32 265 70 362
144 158 120 237 385 187 626 -52 255 -233 391 -595 449 -82 12 -203 17 -566
20 l-463 5 0 -637z"/>
<path d="M7430 12376 l0 -746 393 0 c215 0 458 5 539 10 416 27 627 137 754
395 57 116 77 208 78 365 1 147 -18 242 -67 337 -66 130 -142 200 -292 273
-92 44 -135 58 -295 91 -36 8 -239 13 -582 16 l-528 4 0 -745z"/>
</g>
</svg>
